<svg width="366" height="280" viewBox="0 0 366 280" fill="none" xmlns="http://www.w3.org/2000/svg">
<rect y="1" width="366" height="279" fill="#494E5F"/>
<rect x="34.5" y="68.1824" width="297.07" height="183.318" stroke="#FFE7D4" stroke-width="3"/>
<path d="M118.357 129.752V131H106.789V129.752L109.429 129.464C109.941 129.4 110.245 129.272 110.341 129.08C110.437 128.856 110.485 128.2 110.485 127.112V101.096L100.501 127.16H97.2372L87.2052 101.096V127.112C87.2052 128.2 87.2532 128.856 87.3492 129.08C87.4452 129.272 87.7492 129.4 88.2612 129.464L90.9012 129.752V131H81.7332V129.752L84.3732 129.464C84.8852 129.4 85.1892 129.272 85.2852 129.08C85.3812 128.856 85.4292 128.2 85.4292 127.112V102.248C85.4292 101.16 85.3812 100.52 85.2852 100.328C85.1892 100.104 84.8852 99.96 84.3732 99.896L81.7332 99.656V98.36H90.5172L100.165 123.56L109.813 98.36H118.357V99.656L115.717 99.896C115.205 99.96 114.901 100.104 114.805 100.328C114.709 100.52 114.661 101.16 114.661 102.248V127.112C114.661 128.2 114.709 128.856 114.805 129.08C114.901 129.272 115.205 129.4 115.717 129.464L118.357 129.752ZM129.75 129.752V131H120.63V129.752L123.222 129.464C123.574 129.432 123.83 129.384 123.99 129.32C124.15 129.224 124.294 129.032 124.422 128.744C124.582 128.424 124.774 127.88 124.998 127.112L134.262 98.36H137.286L146.646 127.112C146.87 127.88 147.046 128.424 147.174 128.744C147.334 129.032 147.494 129.224 147.654 129.32C147.814 129.384 148.054 129.432 148.374 129.464L151.014 129.752V131H139.35V129.752L141.99 129.464C142.502 129.4 142.774 129.272 142.806 129.08C142.87 128.856 142.726 128.2 142.374 127.112L140.406 120.968H128.694L126.726 127.112C126.374 128.2 126.214 128.856 126.246 129.08C126.31 129.272 126.598 129.4 127.11 129.464L129.75 129.752ZM129.174 119.432H139.926L134.55 102.728L129.174 119.432ZM153.171 99.656V98.36H166.515C169.651 98.36 172.051 99.112 173.715 100.616C175.411 102.088 176.259 104.056 176.259 106.52V108.008C176.259 109.96 175.715 111.624 174.627 113C173.571 114.344 172.051 115.272 170.067 115.784L176.211 127.112C176.627 127.88 176.931 128.424 177.123 128.744C177.315 129.032 177.491 129.224 177.651 129.32C177.843 129.384 178.099 129.432 178.419 129.464L180.579 129.752V131H173.331L165.747 116.216H161.043V127.112C161.043 128.232 161.091 128.888 161.187 129.08C161.283 129.272 161.587 129.4 162.099 129.464L164.739 129.752V131H153.171V129.752L155.811 129.464C156.323 129.4 156.627 129.272 156.723 129.08C156.819 128.888 156.867 128.232 156.867 127.112V102.248C156.867 101.128 156.819 100.472 156.723 100.28C156.627 100.088 156.323 99.96 155.811 99.896L153.171 99.656ZM166.515 99.896H161.043V114.68H166.515C168.179 114.68 169.475 114.152 170.403 113.096C171.363 112.008 171.843 110.376 171.843 108.2V106.328C171.843 104.152 171.363 102.536 170.403 101.48C169.475 100.424 168.179 99.896 166.515 99.896ZM181.397 98.36H206.933V106.184H205.685L204.293 101.144C204.197 100.76 204.085 100.488 203.957 100.328C203.861 100.136 203.653 100.024 203.333 99.992C203.013 99.928 202.469 99.896 201.701 99.896H196.277V127.112C196.277 128.232 196.325 128.888 196.421 129.08C196.517 129.272 196.821 129.4 197.333 129.464L199.973 129.752V131H188.405V129.752L191.045 129.464C191.557 129.4 191.861 129.272 191.957 129.08C192.053 128.888 192.101 128.232 192.101 127.112V99.896H186.629C185.893 99.896 185.349 99.928 184.997 99.992C184.677 100.024 184.453 100.136 184.325 100.328C184.229 100.488 184.133 100.76 184.037 101.144L182.645 106.184H181.397V98.36ZM209.889 99.656V98.36H221.457V99.656L218.817 99.896C218.305 99.96 218.001 100.088 217.905 100.28C217.809 100.472 217.761 101.128 217.761 102.248V127.112C217.761 128.232 217.809 128.888 217.905 129.08C218.001 129.272 218.305 129.4 218.817 129.464L221.457 129.752V131H209.889V129.752L212.529 129.464C213.041 129.4 213.345 129.272 213.441 129.08C213.537 128.888 213.585 128.232 213.585 127.112V102.248C213.585 101.128 213.537 100.472 213.441 100.28C213.345 100.088 213.041 99.96 212.529 99.896L209.889 99.656ZM245.885 99.656V98.36H255.053V99.656L252.413 99.896C251.901 99.96 251.597 100.104 251.501 100.328C251.405 100.52 251.357 101.16 251.357 102.248V131H249.005L231.533 101.528V127.112C231.533 128.2 231.581 128.856 231.677 129.08C231.773 129.272 232.077 129.4 232.589 129.464L235.229 129.752V131H226.061V129.752L228.701 129.464C229.213 129.4 229.517 129.272 229.613 129.08C229.709 128.856 229.757 128.2 229.757 127.112V102.248C229.757 101.16 229.709 100.52 229.613 100.328C229.517 100.104 229.213 99.96 228.701 99.896L226.061 99.656V98.36H234.365L249.581 124.088V102.248C249.581 101.16 249.533 100.52 249.437 100.328C249.341 100.104 249.037 99.96 248.525 99.896L245.885 99.656ZM265.594 129.752V131H256.474V129.752L259.066 129.464C259.418 129.432 259.674 129.384 259.834 129.32C259.994 129.224 260.138 129.032 260.266 128.744C260.426 128.424 260.618 127.88 260.842 127.112L270.106 98.36H273.13L282.49 127.112C282.714 127.88 282.89 128.424 283.018 128.744C283.178 129.032 283.338 129.224 283.498 129.32C283.658 129.384 283.898 129.432 284.218 129.464L286.858 129.752V131H275.194V129.752L277.834 129.464C278.346 129.4 278.618 129.272 278.65 129.08C278.714 128.856 278.57 128.2 278.218 127.112L276.25 120.968H264.538L262.57 127.112C262.218 128.2 262.058 128.856 262.09 129.08C262.154 129.272 262.442 129.4 262.954 129.464L265.594 129.752ZM265.018 119.432H275.77L270.394 102.728L265.018 119.432Z" fill="#F5F5F5"/>
<path d="M76.4396 163.22V161.4H93.3096V163.22L89.4596 163.64C88.7129 163.687 88.2696 163.873 88.1296 164.2C87.9896 164.48 87.9196 165.437 87.9196 167.07V187.65L105.42 166.65C106.586 165.297 107.17 164.48 107.17 164.2C107.216 163.873 106.843 163.687 106.05 163.64L102.48 163.22V161.4H115.78V163.22L112.21 163.64C111.743 163.687 111.37 163.78 111.09 163.92C110.81 164.013 110.483 164.27 110.11 164.69C109.783 165.063 109.223 165.717 108.43 166.65L97.5096 179.81L110.81 203.33C111.416 204.403 111.86 205.173 112.14 205.64C112.466 206.107 112.793 206.41 113.12 206.55C113.446 206.643 113.89 206.713 114.45 206.76L117.81 207.18V209H106.89L93.4496 184.71L87.9196 191.29V203.33C87.9196 204.963 87.9896 205.92 88.1296 206.2C88.2696 206.48 88.7129 206.667 89.4596 206.76L93.3096 207.18V209H76.4396V207.18L80.2896 206.76C81.0363 206.667 81.4796 206.48 81.6196 206.2C81.7596 205.92 81.8296 204.963 81.8296 203.33V167.07C81.8296 165.437 81.7596 164.48 81.6196 164.2C81.4796 163.873 81.0363 163.687 80.2896 163.64L76.4396 163.22ZM121.488 163.29V161.4H140.948C145.522 161.4 149.022 162.497 151.448 164.69C153.922 166.837 155.158 169.707 155.158 173.3V175.47C155.158 178.317 154.365 180.743 152.778 182.75C151.238 184.71 149.022 186.063 146.128 186.81L155.088 203.33C155.695 204.45 156.138 205.243 156.418 205.71C156.698 206.13 156.955 206.41 157.188 206.55C157.468 206.643 157.842 206.713 158.308 206.76L161.458 207.18V209H150.888L139.828 187.44H132.968V203.33C132.968 204.963 133.038 205.92 133.178 206.2C133.318 206.48 133.762 206.667 134.508 206.76L138.358 207.18V209H121.488V207.18L125.338 206.76C126.085 206.667 126.528 206.48 126.668 206.2C126.808 205.92 126.878 204.963 126.878 203.33V167.07C126.878 165.437 126.808 164.48 126.668 164.2C126.528 163.92 126.085 163.733 125.338 163.64L121.488 163.29ZM140.948 163.64H132.968V185.2H140.948C143.375 185.2 145.265 184.43 146.618 182.89C148.018 181.303 148.718 178.923 148.718 175.75V173.02C148.718 169.847 148.018 167.49 146.618 165.95C145.265 164.41 143.375 163.64 140.948 163.64ZM196.948 197.59H198.768V209H165.238V207.18L169.088 206.76C169.835 206.667 170.278 206.48 170.418 206.2C170.558 205.92 170.628 204.963 170.628 203.33V167.07C170.628 165.437 170.558 164.48 170.418 164.2C170.278 163.92 169.835 163.733 169.088 163.64L165.238 163.29V161.4H197.858V172.81H196.108L194.078 165.46C193.938 164.9 193.775 164.503 193.588 164.27C193.448 163.99 193.145 163.827 192.678 163.78C192.212 163.687 191.418 163.64 190.298 163.64H176.718V183.87H186.098C187.218 183.87 188.012 183.847 188.478 183.8C188.945 183.707 189.248 183.543 189.388 183.31C189.575 183.03 189.738 182.61 189.878 182.05L191.208 176.8H193.028V193.18H191.208L189.878 187.93C189.738 187.37 189.575 186.973 189.388 186.74C189.248 186.46 188.945 186.297 188.478 186.25C188.012 186.157 187.218 186.11 186.098 186.11H176.718V206.76H191.138C192.258 206.76 193.052 206.737 193.518 206.69C193.985 206.597 194.288 206.433 194.428 206.2C194.615 205.92 194.778 205.5 194.918 204.94L196.948 197.59ZM205.844 163.29V161.4H222.714V163.29L218.864 163.64C218.117 163.733 217.674 163.92 217.534 164.2C217.394 164.48 217.324 165.437 217.324 167.07V203.33C217.324 204.963 217.394 205.92 217.534 206.2C217.674 206.48 218.117 206.667 218.864 206.76L222.714 207.18V209H205.844V207.18L209.694 206.76C210.441 206.667 210.884 206.48 211.024 206.2C211.164 205.92 211.234 204.963 211.234 203.33V167.07C211.234 165.437 211.164 164.48 211.024 164.2C210.884 163.92 210.441 163.733 209.694 163.64L205.844 163.29ZM263.728 166.65L250.148 209H245.458L231.808 166.65C231.388 165.25 231.061 164.433 230.828 164.2C230.641 163.92 230.175 163.733 229.428 163.64L225.928 163.29V161.4H242.378V163.29L238.808 163.64C238.061 163.733 237.641 163.92 237.548 164.2C237.501 164.48 237.688 165.297 238.108 166.65L249.658 202.91L261.208 166.65C261.675 165.297 261.861 164.48 261.768 164.2C261.721 163.92 261.301 163.733 260.508 163.64L256.938 163.29V161.4H269.608V163.29L266.038 163.64C265.571 163.687 265.221 163.78 264.988 163.92C264.801 164.013 264.615 164.27 264.428 164.69C264.288 165.063 264.055 165.717 263.728 166.65ZM272.836 163.29V161.4H289.706V163.29L285.856 163.64C285.109 163.733 284.666 163.92 284.526 164.2C284.386 164.48 284.316 165.437 284.316 167.07V203.33C284.316 204.963 284.386 205.92 284.526 206.2C284.666 206.48 285.109 206.667 285.856 206.76L289.706 207.18V209H272.836V207.18L276.686 206.76C277.433 206.667 277.876 206.48 278.016 206.2C278.156 205.92 278.226 204.963 278.226 203.33V167.07C278.226 165.437 278.156 164.48 278.016 164.2C277.876 163.92 277.433 163.733 276.686 163.64L272.836 163.29Z" fill="#F5F5F5"/>
<path d="M287.908 63.2019C281.438 71.6491 269.113 72.449 253.893 67.7287C249.333 61.3421 247.755 55.8636 248.109 50.9352C248.465 45.9848 250.773 41.5494 254.052 37.2689C255.67 35.1566 259.473 32.1567 264.284 28.9841C269.085 25.8185 274.86 22.5007 280.391 19.7502C285.926 16.9976 291.201 14.8212 295.008 13.9281C296.92 13.4795 298.42 13.3653 299.392 13.6312C299.87 13.7622 300.199 13.9796 300.397 14.2744C300.594 14.5691 300.683 14.9763 300.613 15.5342C299.572 23.7993 298.031 33.5868 295.929 42.3793C293.825 51.1845 291.166 58.9488 287.908 63.2019Z" fill="#FFE7D4" stroke="#D9D9D9" stroke-width="0.5"/>
<path d="M249.488 42.7915C255.3 48.9255 257.217 58.5437 251.46 69.3586C245.646 71.0589 241.1 71.4747 237.29 70.7146C233.463 69.9514 230.349 67.9969 227.421 64.9069C225.976 63.3817 224.124 60.0689 222.27 55.9571C220.422 51.8564 218.586 46.994 217.166 42.3977C215.745 37.7971 214.745 33.4798 214.56 30.4636C214.467 28.947 214.583 27.8016 214.921 27.114C215.086 26.7768 215.295 26.5698 215.539 26.4686C215.784 26.3673 216.105 26.3552 216.529 26.4859C222.928 28.4567 229.706 30.9869 235.619 33.801C241.539 36.6181 246.567 39.7084 249.488 42.7915Z" fill="#D9D9D9" stroke="#D9D9D9" stroke-width="0.5"/>
<path d="M218.109 30.0478L249.026 65.6781L247.723 66.768L218.109 30.0478Z" fill="#494E5F"/>
<path d="M288.66 24.1433L257.018 65.5156L255.686 64.4619L288.66 24.1433Z" fill="#494E5F"/>
</svg>
